<?xml version="1.0" encoding="UTF-8"?>
<svg version="1.1" xmlns="http://www.w3.org/2000/svg" width="690" height="195">
<path d="M0 0 C0.98187409 -0.00551949 1.96374819 -0.01103897 2.97537604 -0.01672572 C4.05891085 -0.01261508 5.14244567 -0.00850444 6.25881487 -0.00426924 C7.4108605 -0.00777532 8.56290612 -0.01128139 9.74986222 -0.01489371 C12.96695906 -0.02263065 16.18391068 -0.02133883 19.40100844 -0.01633817 C22.89362917 -0.01308278 26.38622522 -0.02134466 29.87883818 -0.02815652 C36.00651812 -0.03848473 42.13416645 -0.04129544 48.26185423 -0.03924429 C57.37377644 -0.03620163 66.48566352 -0.0445019 75.59757891 -0.05499355 C92.81575968 -0.07436424 110.03392856 -0.07996289 127.25211894 -0.08110766 C140.54482788 -0.08202568 153.83753213 -0.08613675 167.13023955 -0.09250891 C170.95230698 -0.09430391 174.77437442 -0.09608354 178.59644186 -0.09785867 C179.54653363 -0.09830076 180.49662539 -0.09874286 181.47550782 -0.09919835 C208.20989922 -0.11151154 234.94428898 -0.11939899 261.67868334 -0.1185118 C262.68721226 -0.11848064 263.69574117 -0.11844948 264.73483157 -0.11841738 C269.8468373 -0.11825116 274.95884303 -0.11805307 280.07084876 -0.11784796 C281.08616886 -0.11780807 282.10148896 -0.11776818 283.14757634 -0.11772708 C285.20080155 -0.11764621 287.25402677 -0.11756261 289.30725198 -0.1174763 C321.26280701 -0.11625038 353.21831962 -0.13126957 385.17386252 -0.15862143 C421.04912292 -0.18931543 456.92435544 -0.20655557 492.79962981 -0.20469499 C496.6220116 -0.20454572 500.44439339 -0.20444831 504.26677519 -0.20438635 C505.67859962 -0.20435139 505.67859962 -0.20435139 507.11894575 -0.20431572 C522.29195364 -0.20425407 537.46492482 -0.21704754 552.63792179 -0.23425088 C567.8758235 -0.251171 583.11367127 -0.25320969 598.35157716 -0.24003224 C607.41347252 -0.23261899 616.47520447 -0.23637151 625.53708266 -0.25591692 C631.58248815 -0.26785861 637.62777445 -0.26539112 643.67317433 -0.25097592 C647.12279035 -0.24316337 650.57208867 -0.24180175 654.02168309 -0.25789063 C657.73014472 -0.27186221 661.43774375 -0.26154281 665.14617449 -0.24477828 C666.22736814 -0.25471464 667.30856179 -0.26465099 668.42251888 -0.27488846 C675.57670683 -0.20583325 675.57670683 -0.20583325 678.9681803 2.05364203 C680.26541525 4.25299966 680.26541525 4.25299966 680.14041525 7.94049966 C679.85166525 9.03362466 679.56291525 10.12674966 679.26541525 11.25299966 C676.84934684 12.46103387 675.33956906 12.37857532 672.6399036 12.3794995 C671.65689752 12.38225924 670.67389144 12.38501898 669.66109729 12.38786235 C668.02618397 12.38477938 668.02618397 12.38477938 666.35824209 12.38163412 C665.20337437 12.38338715 664.04850665 12.38514019 662.85864294 12.38694635 C659.62901905 12.39081916 656.39943124 12.39016675 653.16980711 12.38766858 C649.66534372 12.38604259 646.16088651 12.39017039 642.65642506 12.39357775 C636.50645287 12.39874462 630.35648856 12.40014674 624.20651442 12.39912164 C615.06153664 12.39760103 605.91656763 12.40174884 596.77159156 12.40699627 C579.49160461 12.41668412 562.21162061 12.41948103 544.93163127 12.42005333 C531.59216271 12.42051223 518.25269532 12.42256725 504.91322714 12.42575395 C501.07850828 12.42665144 497.24378942 12.42754126 493.40907055 12.42842883 C492.4558508 12.42864988 491.50263105 12.42887092 490.52052586 12.42909867 C463.6964678 12.43525566 436.87241014 12.43919895 410.04835135 12.43875539 C409.03634026 12.43873981 408.02432917 12.43872424 406.98165108 12.43870818 C401.8519255 12.43862507 396.72219992 12.43852603 391.59247434 12.43842348 C390.06419827 12.43839356 390.06419827 12.43839356 388.50504792 12.43836304 C386.444683 12.4383226 384.38431807 12.4382808 382.32395314 12.43823765 C350.25446854 12.43762463 318.18499449 12.44513511 286.11551291 12.45881021 C250.1175941 12.47415402 214.11968224 12.48277748 178.12175995 12.48184699 C174.28704109 12.48177235 170.45232223 12.48172365 166.61760336 12.48169267 C165.67333943 12.48168102 164.7290755 12.48166936 163.75619751 12.48165736 C148.52789144 12.48162652 133.29959451 12.48802578 118.07129116 12.49662494 C102.78066471 12.50508103 87.4900517 12.50610746 72.19942421 12.49951562 C63.10383186 12.49580637 54.0082802 12.49769304 44.91269212 12.50745796 C38.84734357 12.51342207 32.78202475 12.51220263 26.71667762 12.50498746 C23.25408006 12.50107551 19.7915617 12.50041665 16.32896948 12.50844481 C12.61010112 12.51541289 8.89144892 12.51028451 5.17258841 12.50188863 C4.08264619 12.50685681 2.99270398 12.51182499 1.86973321 12.51694372 C0.88672713 12.51219291 -0.09627895 12.5074421 -1.1090731 12.50254732 C-2.38635114 12.50267966 -2.38635114 12.50267966 -3.68943277 12.50281466 C-5.73458475 12.25299966 -5.73458475 12.25299966 -7.73458475 10.25299966 C-8.035366 8.37799966 -8.035366 8.37799966 -8.04708475 6.25299966 C-8.06384256 5.55174966 -8.08060037 4.85049966 -8.097866 4.12799966 C-7.97798319 3.50924966 -7.85810037 2.89049966 -7.73458475 2.25299966 C-4.51867164 0.10905759 -3.69717171 0.00254054 0 0 Z " fill="#FCD338" transform="translate(8.734584748744965,181.74700033664703)"/>
<path d="M0 0 C13.45898744 9.87815592 20.99165891 23.02079454 24.25 39.3125 C24.25 46.2425 24.25 53.1725 24.25 60.3125 C-3.8 60.3125 -31.85 60.3125 -60.75 60.3125 C-55.38726565 74.2556093 -51.74677815 82.00321027 -38.71484375 88.48046875 C-30.70095641 91.87402343 -20.08743936 91.4744083 -11.9375 88.75 C-4.57172582 85.66077232 1.72989723 81.04636529 7.25 75.3125 C11.14917968 76.92787444 13.96293772 79.59174873 17 82.4375 C17.50660156 82.90542969 18.01320313 83.37335938 18.53515625 83.85546875 C19.77719141 85.00376541 21.01411494 86.15758672 22.25 87.3125 C14.71420958 99.45349567 2.08988652 106.87753856 -11.625 110.1875 C-29.13506489 113.45372623 -45.62676874 110.78196488 -60.4375 100.6875 C-69.53692258 93.68895421 -75.88584458 85.10182806 -79.75 74.3125 C-80.06839844 73.4359375 -80.38679688 72.559375 -80.71484375 71.65625 C-85.47076492 56.05156857 -83.88412769 37.79057015 -77.0625 23.125 C-70.36561075 10.66681633 -60.27053866 0.28727015 -46.75 -4.6875 C-31.53730408 -9.24140897 -13.68469307 -8.41233701 0 0 Z M-50.75 21.3125 C-56.35085893 28.66362734 -58.19973419 33.96152536 -60.75 43.3125 C-39.96 43.3125 -19.17 43.3125 2.25 43.3125 C0.69964608 32.46002256 -2.42084887 24.70613053 -10.75 17.3125 C-22.91138535 9.33709874 -40.80361305 9.82550421 -50.75 21.3125 Z " fill="#000000" transform="translate(83.75,41.6875)"/>
<path d="M0 0 C13.8978255 -0.40875957 27.57659682 2.23982815 38.3125 11.4375 C49.20708326 22.01781644 51.22681148 33.34197521 51.875 48.125 C51.93872386 53.4690352 51.85807144 58.80581568 51.75390625 64.1484375 C51.72952242 65.63057602 51.70568348 67.1127236 51.68235779 68.59487915 C51.62033658 72.44501276 51.55105043 76.29498042 51.48010254 80.1449585 C51.40866538 84.09395973 51.34430395 88.04307611 51.27929688 91.9921875 C51.15134564 99.70325563 51.01504156 107.41414023 50.875 115.125 C43.945 115.125 37.015 115.125 29.875 115.125 C29.38 110.67 29.38 110.67 28.875 106.125 C28.22015625 106.58390625 27.5653125 107.0428125 26.890625 107.515625 C17.88533252 113.57003068 8.76138672 117.41113858 -2.125 118.125 C-2.78371094 118.1765625 -3.44242187 118.228125 -4.12109375 118.28125 C-16.48110017 118.82554386 -28.54091725 115.15264786 -38.21875 107.4609375 C-44.76551534 101.38576119 -48.62610799 93.29550639 -49.34765625 84.37109375 C-49.66733426 73.48814251 -47.22211922 64.53161047 -40.125 56.125 C-28.50634134 44.68828901 -12.08316521 42.81909567 3.42138672 42.8112793 C12.06036381 42.96711494 20.42247368 44.42843558 28.875 46.125 C29.09110747 39.29267931 28.07278204 33.84806613 23.51953125 28.546875 C16.46857512 22.27095695 7.94263565 20.78696057 -1.16015625 20.91015625 C-10.90485429 21.61629379 -19.89139861 24.04140592 -28.734375 28.13671875 C-31.125 29.125 -31.125 29.125 -34.125 29.125 C-35.12880916 26.33464954 -36.1281945 23.54285145 -37.125 20.75 C-37.41117188 19.9559375 -37.69734375 19.161875 -37.9921875 18.34375 C-38.26289063 17.58320312 -38.53359375 16.82265625 -38.8125 16.0390625 C-39.06386719 15.3373291 -39.31523437 14.6355957 -39.57421875 13.91259766 C-40.125 12.125 -40.125 12.125 -40.125 10.125 C-26.97443864 4.5046356 -14.35952232 0.84467778 0 0 Z M-24.125 70.125 C-26.81898043 74.90464269 -27.79526461 78.66713103 -27.125 84.125 C-25.12980832 90.33622172 -21.86629946 94.09486973 -16.125 97.125 C-7.83728182 100.67687922 2.45130716 100.29797538 10.875 97.375 C18.63407377 94.11459858 25.10021481 89.7161402 28.91796875 82.0234375 C31.03820738 76.38937617 31.21129746 71.09116604 30.875 65.125 C21.97797879 61.34376598 12.8076298 60.91528833 3.25 60.8125 C2.37988281 60.79493652 1.50976562 60.77737305 0.61328125 60.75927734 C-8.84212329 60.76819081 -17.80132937 62.624424 -24.125 70.125 Z " fill="#000000" transform="translate(281.125,34.875)"/>
<path d="M0 0 C8.48656348 9.67303449 11.17785823 20.17638876 11.11352539 32.84130859 C11.11367142 33.60296326 11.11381744 34.36461792 11.1139679 35.14935303 C11.11327518 37.64907754 11.10551299 40.14872612 11.09765625 42.6484375 C11.09578979 44.38864094 11.09436696 46.12884491 11.09336853 47.86904907 C11.08956131 52.43598903 11.07974642 57.00289689 11.06866455 61.56982422 C11.05841177 66.23534715 11.05386264 70.90087529 11.04882812 75.56640625 C11.03812247 84.71095383 11.02054028 93.85546922 11 103 C4.07 103 -2.86 103 -10 103 C-10.495 98.545 -10.495 98.545 -11 94 C-11.53367187 94.38671875 -12.06734375 94.7734375 -12.6171875 95.171875 C-25.79918281 104.38558798 -40.40544383 107.60198786 -56.3125 105.375 C-66.27333306 103.39121558 -76.28214855 98.28205888 -82.4609375 90.0546875 C-88.24071905 81.26808318 -89.91939082 71.76321372 -88.375 61.375 C-86.50600518 52.68603072 -82.06792324 45.42785265 -75 40 C-55.34708619 27.40197833 -31.81583456 29.89578924 -10 34 C-11.17044366 25.34487713 -12.82379325 18.75599519 -20.046875 13.1015625 C-32.02850909 6.34392087 -46.40603648 8.64943207 -59 12 C-62.27521582 13.25271559 -65.44316265 14.60412651 -68.609375 16.109375 C-71 17 -71 17 -74 16 C-75.20590129 13.35053805 -76.22951762 10.79925459 -77.1875 8.0625 C-77.46013672 7.32064453 -77.73277344 6.57878906 -78.01367188 5.81445312 C-80 0.32342575 -80 0.32342575 -80 -2 C-55.37122907 -12.52598924 -22.42575558 -19.43010734 0 0 Z M-63 57 C-66.06513799 60.9408917 -67.12821721 65.04532051 -67 70 C-66.00453883 75.64447665 -63.45546975 79.30011432 -58.9296875 82.74609375 C-51.43617443 87.61536034 -43.79869666 87.85794442 -35 87 C-25.32706601 84.88582171 -17.47216582 81.15863028 -12 72.734375 C-8.34202725 66.39007851 -8.79251301 60.12372006 -9 53 C-24.09007804 46.68815716 -50.60605756 44.21874686 -63 57 Z " fill="#000000" transform="translate(557,47)"/>
<path d="M0 0 C7.26 0 14.52 0 22 0 C22.33 15.18 22.66 30.36 23 46 C25.64 43.69 28.28 41.38 31 39 C43.27416128 32.01316973 56.93266633 31.23583974 70.72265625 33.65234375 C77.54585867 35.70370654 82.82300148 39.15300935 88 44 C88.56460938 44.52335937 89.12921875 45.04671875 89.7109375 45.5859375 C97.57975309 53.7742989 100.16772184 64.90585473 100.11352539 75.91137695 C100.11367142 76.69239273 100.11381744 77.47340851 100.1139679 78.27809143 C100.1132737 80.84818339 100.10550446 83.41820202 100.09765625 85.98828125 C100.09579032 87.77475444 100.09436724 89.56122814 100.09336853 91.34770203 C100.08955716 96.04124371 100.07973867 100.73475427 100.06866455 105.42828369 C100.05842075 110.22106505 100.05386455 115.01385146 100.04882812 119.80664062 C100.03811514 129.20444293 100.02052953 138.602214 100 148 C92.74 148 85.48 148 78 148 C78.01047363 145.99244629 78.02094727 143.98489258 78.03173828 141.91650391 C78.06501811 135.25096587 78.08702532 128.58542398 78.10362434 121.9198246 C78.11401967 117.88221431 78.12810029 113.84468983 78.15087891 109.80712891 C78.17276009 105.90379377 78.18460052 102.00054068 78.18975449 98.0971489 C78.19342303 96.61496058 78.20058601 95.13277628 78.21146011 93.65062332 C78.35690228 74.91174404 78.35690228 74.91174404 69.25 59.1875 C61.40327257 53.90604885 54.33288476 53.01286796 45 54 C37.83214898 55.67249857 32.37482922 59.05442093 28 65 C24.47801498 71.26011362 22.90790133 77.2160003 22.81054688 84.39428711 C22.79382935 85.44986313 22.77711182 86.50543915 22.7598877 87.59300232 C22.74631226 88.72633499 22.73273682 89.85966766 22.71875 91.02734375 C22.70034058 92.20784805 22.68193115 93.38835236 22.66296387 94.60462952 C22.60429521 98.38220293 22.55152144 102.15982279 22.5 105.9375 C22.08704712 135.83413103 22.08704712 135.83413103 21 148 C14.07 148 7.14 148 0 148 C0 99.16 0 50.32 0 0 Z " fill="#000000" transform="translate(353,2)"/>
<path d="M0 0 C7.26 0 14.52 0 22 0 C22.33 18.81 22.66 37.62 23 57 C27.95 51.72 32.9 46.44 38 41 C45 34 45 34 48 31.0625 C50.22612804 28.84225535 52.3004224 26.53102783 54.3515625 24.1484375 C58.15058251 19.7556246 62.23227214 15.69143453 66.375 11.625 C67.80175991 10.22367253 69.22635507 8.8201365 70.6484375 7.4140625 C71.26895996 6.8051416 71.88948242 6.1962207 72.52880859 5.56884766 C74.09461962 4.04876539 74.09461962 4.04876539 75 2 C84.57 2 94.14 2 104 2 C99.47650404 7.27741195 94.8956782 12.18473623 89.94335938 17.01757812 C87.07988622 19.83980077 84.35651944 22.71054703 81.74609375 25.76953125 C78.94372084 29.01710824 75.98557885 32.02932552 72.90625 35.015625 C72.02195312 35.87414062 71.13765625 36.73265625 70.2265625 37.6171875 C68.38485957 39.3955654 66.53568478 41.16623302 64.6796875 42.9296875 C63.80570313 43.78304687 62.93171875 44.63640625 62.03125 45.515625 C61.23267578 46.28165039 60.43410156 47.04767578 59.61132812 47.83691406 C57.79071582 49.81788785 57.79071582 49.81788785 58.04516602 51.99951172 C59.20277868 54.42484492 60.58982552 56.37243041 62.24609375 58.4921875 C63.24672852 59.78576172 63.24672852 59.78576172 64.26757812 61.10546875 C64.98365234 62.01941406 65.69972656 62.93335938 66.4375 63.875 C67.9169945 65.78780292 69.39486231 67.70186515 70.87109375 69.6171875 C71.58765137 70.5462793 72.30420898 71.47537109 73.04248047 72.43261719 C75.43757727 75.57390404 77.72948415 78.76753319 80 82 C84.98865133 89.08644318 90.26017818 95.94808787 95.55664062 102.80664062 C96.21728516 103.66580078 96.87792969 104.52496094 97.55859375 105.41015625 C98.44502563 106.55689819 98.44502563 106.55689819 99.34936523 107.72680664 C101.05459864 110.07519123 102.5434406 112.49121965 104 115 C81.69333802 117.82393362 81.69333802 117.82393362 74.57275391 113.53955078 C70.33695703 109.54063438 67.45676296 104.6459859 64.57128906 99.62695312 C61.89807506 95.15775134 58.70151269 91.08564406 55.5625 86.9375 C54.45732325 85.42747079 53.35437925 83.91580437 52.25390625 82.40234375 C49.37707444 78.46316114 46.36423435 74.6450926 43.30053711 70.84985352 C42 69 42 69 42 67 C36.46432795 71.55523967 31.61492701 76.47988269 26.8828125 81.86328125 C25.6325183 83.28218359 24.33725828 84.66274172 23 86 C22.62703444 89.00972657 22.62703444 89.00972657 22.5859375 92.5390625 C22.54726562 93.84101563 22.50859375 95.14296875 22.46875 96.484375 C22.43729237 97.86457862 22.40604509 99.24478704 22.375 100.625 C22.33682066 102.01304541 22.29776895 103.40106711 22.2578125 104.7890625 C22.16327312 108.19248027 22.08053771 111.59622212 22 115 C14.74 115 7.48 115 0 115 C0 77.05 0 39.1 0 0 Z " fill="#000000" transform="translate(126,35)"/>
<path d="M0 0 C7.26 0 14.52 0 22 0 C22.01458252 2.19454834 22.02916504 4.38909668 22.04418945 6.65014648 C22.09467966 13.92653574 22.16129968 21.20271423 22.23571491 28.47889614 C22.28031322 32.88752325 22.31959214 37.29606019 22.34643555 41.70483398 C22.37257425 45.96495682 22.41305015 50.2247307 22.46318626 54.48463631 C22.47978388 56.10435689 22.49134218 57.72413772 22.49761391 59.3439312 C22.47001781 75.16373111 22.47001781 75.16373111 30.23046875 88.4921875 C36.75774257 94.05405879 43.80451493 94.76078268 52.203125 94.5078125 C59.9011305 93.47824386 66.56019186 90.28219511 71.5625 84.25 C77.43600516 74.69648756 77.46686849 64.61056717 77.51171875 53.7109375 C77.5285953 52.15579844 77.54674947 50.60067278 77.56611633 49.04556274 C77.61329993 44.98508899 77.64331265 40.92466954 77.66955566 36.86401367 C77.69952235 32.70741045 77.74599664 28.55099387 77.79101562 24.39453125 C77.87668812 16.26309785 77.94266324 8.13168261 78 0 C85.26 0 92.52 0 100 0 C100 37.29 100 74.58 100 113 C92.74 113 85.48 113 78 113 C77.67 109.37 77.34 105.74 77 102 C75.0509375 103.85625 75.0509375 103.85625 73.0625 105.75 C63.53099589 114.16627352 52.67811022 116.50206969 40.125 115.9375 C27.42267539 115.04487178 17.57786603 110.5398697 9 101 C2.14227034 92.35760816 -0.16759385 82.01932897 -0.11352539 71.18041992 C-0.11367142 70.40915771 -0.11381744 69.63789551 -0.1139679 68.84326172 C-0.11327378 66.305635 -0.10550492 63.76808258 -0.09765625 61.23046875 C-0.09579029 59.46641581 -0.09436723 57.70236236 -0.09336853 55.93830872 C-0.08955738 51.3039506 -0.07973909 46.66962401 -0.06866455 42.03527832 C-0.05842026 37.30282009 -0.05386445 32.57035675 -0.04882812 27.83789062 C-0.03811554 18.5585777 -0.02053012 9.27929641 0 0 Z " fill="#000000" transform="translate(589,37)"/>
<path d="M0 0 C0.75802046 -0.00170885 1.51604092 -0.0034177 2.2970317 -0.00517833 C4.84442277 -0.00848023 7.39155214 0.00254189 9.93891907 0.01345825 C11.76199843 0.01402222 13.58507825 0.0137061 15.40815735 0.01257324 C20.36447279 0.01199815 25.32069192 0.02377781 30.27698493 0.03772116 C35.45398966 0.05020241 40.63099646 0.05139696 45.80801392 0.05377197 C55.61461671 0.05999441 65.42117504 0.07641556 75.22775823 0.09647095 C86.39084982 0.1188062 97.5539435 0.1298174 108.71705186 0.13986182 C131.68336625 0.16078113 154.64964115 0.19597193 177.61592102 0.24050903 C177.61592102 4.20050903 177.61592102 8.16050903 177.61592102 12.24050903 C153.39908364 12.28717304 129.18225296 12.32247035 104.96537971 12.34413338 C93.72176234 12.35445801 82.47817285 12.36854095 71.23457336 12.39138794 C61.43779128 12.41128555 51.6410294 12.42421683 41.84422767 12.42868602 C36.65406729 12.43129957 31.46396469 12.43746704 26.27382278 12.45196915 C21.39346185 12.4654958 16.51318277 12.46974169 11.63280487 12.4667244 C9.8372516 12.46727677 8.04169572 12.47128338 6.2461586 12.47891998 C3.80324004 12.48880444 1.36063447 12.48650193 -1.08229065 12.48101807 C-1.80018135 12.48684375 -2.51807205 12.49266943 -3.25771701 12.49867165 C-8.15583656 12.46875145 -8.15583656 12.46875145 -10.38407898 10.24050903 C-10.68486023 8.36550903 -10.68486023 8.36550903 -10.69657898 6.24050903 C-10.71333679 5.53925903 -10.7300946 4.83800903 -10.74736023 4.11550903 C-10.62747742 3.49675903 -10.5075946 2.87800903 -10.38407898 2.24050903 C-6.77056342 -0.16850134 -4.17179531 -0.03417804 0 0 Z " fill="#EF4A46" transform="translate(11.384078979492188,181.75949096679688)"/>
<path d="M0 0 C23.92149864 -0.09337573 47.84297003 -0.16394606 71.76461411 -0.20724869 C82.87145829 -0.22788785 93.97818935 -0.25603434 105.08496094 -0.30175781 C114.76383547 -0.34158409 124.44262808 -0.36742296 134.12158227 -0.37635398 C139.24816796 -0.38157586 144.37451928 -0.3938773 149.50102997 -0.42292023 C154.32400872 -0.45002281 159.14665601 -0.45845544 163.96970367 -0.45243073 C165.74185486 -0.45353328 167.51401685 -0.46151783 169.28610229 -0.4768219 C171.70235499 -0.49666962 174.1173497 -0.491959 176.53363037 -0.48101807 C177.23791349 -0.49266943 177.94219661 -0.5043208 178.66782165 -0.51632524 C181.99081304 -0.47554148 183.75767977 -0.17623164 186.4744606 1.79959488 C188 4 188 4 187.875 7.6875 C187.58625 8.780625 187.2975 9.87375 187 11 C184.02554937 12.48722532 180.99700093 12.13355742 177.73617554 12.12025452 C176.60042648 12.12153615 176.60042648 12.12153615 175.441733 12.12284368 C172.89130744 12.12449767 170.3409469 12.11897843 167.79052734 12.11352539 C165.96759543 12.11324348 164.14466341 12.11340134 162.32173157 12.1139679 C157.36125452 12.1142557 152.40080148 12.10836169 147.44033003 12.10139394 C142.26064646 12.0951576 137.08096238 12.09455638 131.90127563 12.09336853 C122.08757237 12.09025604 112.2738802 12.08204376 102.46018183 12.07201904 C91.28985371 12.06085535 80.11952507 12.05534681 68.94919276 12.05032361 C45.96612235 12.03986109 22.9830618 12.02226323 0 12 C0 8.04 0 4.08 0 0 Z " fill="#90C73E" transform="translate(501,182)"/>
<path d="M0 0 C41.25 0 82.5 0 125 0 C125 3.96 125 7.92 125 12 C83.75 12 42.5 12 0 12 C0 8.04 0 4.08 0 0 Z " fill="#DDE23B" transform="translate(376,182)"/>
<path d="M0 0 C20.79 0 41.58 0 63 0 C63 3.96 63 7.92 63 12 C42.21 12 21.42 12 0 12 C0 8.04 0 4.08 0 0 Z " fill="#F58A49" transform="translate(126,182)"/>
<path d="M0 0 C20.79 0 41.58 0 63 0 C63 3.96 63 7.92 63 12 C42.54 12 22.08 12 1 12 C0.67 8.04 0.34 4.08 0 0 Z " fill="#F0EC49" transform="translate(313,182)"/>
<path d="M0 0 C7.6234932 -0.09040815 15.24678655 -0.16377739 22.87068558 -0.20724869 C26.41090072 -0.22811412 29.95072974 -0.25641126 33.49072266 -0.30175781 C37.56156091 -0.35357738 41.63199427 -0.37295369 45.703125 -0.390625 C47.60798676 -0.42159271 47.60798676 -0.42159271 49.55133057 -0.45318604 C51.32271393 -0.45363922 51.32271393 -0.45363922 53.12988281 -0.45410156 C54.16912903 -0.46298401 55.20837524 -0.47186646 56.27911377 -0.48101807 C59.73334134 0.12964542 60.93510282 1.20231982 63 4 C62.875 7.6875 62.875 7.6875 62 11 C59.29710692 12.35144654 57.19930194 12.11975165 54.17333984 12.11352539 C52.95222504 12.11344986 51.73111023 12.11337433 50.47299194 12.11329651 C49.13564005 12.10818952 47.79828857 12.10297352 46.4609375 12.09765625 C45.09616141 12.0957914 43.73138466 12.09436781 42.36660767 12.09336853 C38.77284907 12.08954863 35.17913083 12.07972283 31.58538818 12.06866455 C27.91891018 12.05843911 24.25242565 12.05386848 20.5859375 12.04882812 C13.39060447 12.0381001 6.19531303 12.02050756 -1 12 C-0.67 8.04 -0.34 4.08 0 0 Z " fill="#84C33F" transform="translate(626,182)"/>
<path d="M0 0 C20.46 0 40.92 0 62 0 C62 3.96 62 7.92 62 12 C41.54 12 21.08 12 0 12 C0 8.04 0 4.08 0 0 Z " fill="#C1D730" transform="translate(439,182)"/>
<path d="M0 0 C20.46 0 40.92 0 62 0 C62 3.96 62 7.92 62 12 C41.54 12 21.08 12 0 12 C0 8.04 0 4.08 0 0 Z " fill="#FAAF42" transform="translate(189,182)"/>
<path d="M0 0 C20.46 0 40.92 0 62 0 C62 3.96 62 7.92 62 12 C41.54 12 21.08 12 0 12 C0 8.04 0 4.08 0 0 Z " fill="#F16748" transform="translate(64,182)"/>
<path d="M0 0 C7.9361421 -0.02255473 15.87225946 -0.04091723 23.80842495 -0.05181217 C27.49314498 -0.05704008 31.17784203 -0.06413605 34.86254883 -0.07543945 C38.41570831 -0.08627162 41.96884563 -0.09227753 45.52202034 -0.09487724 C46.88045666 -0.0967309 48.23889171 -0.10035038 49.59731865 -0.10573006 C51.49382223 -0.11294475 53.39034793 -0.11340809 55.28686523 -0.11352539 C56.36830307 -0.115746 57.44974091 -0.11796661 58.56394958 -0.12025452 C61 0 61 0 62 1 C62 4.63 62 8.26 62 12 C41.54 12 21.08 12 0 12 C0 8.04 0 4.08 0 0 Z " fill="#A8CE38" transform="translate(501,182)"/>
</svg>
