<svg id="SvgjsSvg1021" width="288" height="288" xmlns="http://www.w3.org/2000/svg" version="1.1" xmlns:xlink="http://www.w3.org/1999/xlink" xmlns:svgjs="http://svgjs.com/svgjs"><defs id="SvgjsDefs1022"></defs><g id="SvgjsG1023"><svg xmlns="http://www.w3.org/2000/svg" enable-background="new 0 0 70 70" viewBox="0 0 70 70" width="288" height="288"><path d="M18.42,42.63c-0.28,0-0.5-0.22-0.5-0.5v-1.75c0-1.25,1.02-2.28,2.28-2.28h14.74v-7.04c0-0.28,0.22-0.5,0.5-0.5
						s0.5,0.22,0.5,0.5v7.54c0,0.28-0.22,0.5-0.5,0.5H20.19c-0.7,0-1.28,0.57-1.28,1.28v1.75C18.92,42.4,18.69,42.63,18.42,42.63z" fill="#ffffff" class="color000 svgShape"></path><path d="M52.48 42.63c-.28 0-.5-.22-.5-.5v-1.75c0-.7-.57-1.28-1.28-1.28H35.45c-.28 0-.5-.22-.5-.5v-7.54c0-.28.22-.5.5-.5s.5.22.5.5v7.04H50.7c1.25 0 2.28 1.02 2.28 2.28v1.75C52.98 42.4 52.75 42.63 52.48 42.63zM23.16 67.94h-9.49c-.15 0-.29-.07-.39-.19-.1-.12-.13-.27-.1-.42l1.07-4.81c.06-.27.33-.44.6-.38.27.06.44.33.38.6l-.93 4.2h8.24l-.93-4.2c-.06-.27.11-.54.38-.6.27-.06.54.11.6.38l1.07 4.81c.03.15 0 .3-.1.42C23.46 67.87 23.31 67.94 23.16 67.94z" fill="#ffffff" class="color000 svgShape"></path><path d="M26.03 67.94H10.8c-.28 0-.5-.22-.5-.5s.22-.5.5-.5h15.24c.28 0 .5.22.5.5S26.31 67.94 26.03 67.94zM26.97 63.13H9.86c-2.41 0-4.38-1.96-4.38-4.38V46c0-2.41 1.96-4.38 4.38-4.38h17.11c2.41 0 4.38 1.96 4.38 4.38v12.75C31.35 61.16 29.38 63.13 26.97 63.13zM9.86 42.63C8 42.63 6.48 44.14 6.48 46v12.75c0 1.86 1.51 3.38 3.38 3.38h17.11c1.86 0 3.38-1.51 3.38-3.38V46c0-1.86-1.51-3.38-3.38-3.38H9.86z" fill="#ffffff" class="color000 svgShape"></path><path d="M30.85 58.68H5.99c-.28 0-.5-.22-.5-.5s.22-.5.5-.5h24.86c.28 0 .5.22.5.5S31.12 58.68 30.85 58.68zM56.33 67.94h-9.49c-.15 0-.29-.07-.39-.19-.1-.12-.13-.27-.1-.42l1.07-4.81c.06-.27.33-.44.6-.38.27.06.44.33.38.6l-.93 4.2h8.24l-.93-4.2c-.06-.27.11-.54.38-.6.27-.06.54.11.6.38l1.07 4.81c.03.15 0 .3-.1.42C56.63 67.87 56.48 67.94 56.33 67.94z" fill="#ffffff" class="color000 svgShape"></path><path d="M59.2 67.94H43.97c-.28 0-.5-.22-.5-.5s.22-.5.5-.5H59.2c.28 0 .5.22.5.5S59.48 67.94 59.2 67.94zM60.14 63.13H43.03c-2.41 0-4.38-1.96-4.38-4.38V46c0-2.41 1.96-4.38 4.38-4.38h17.11c2.41 0 4.38 1.96 4.38 4.38v12.75C64.52 61.16 62.55 63.13 60.14 63.13zM43.03 42.63c-1.86 0-3.38 1.51-3.38 3.38v12.75c0 1.86 1.51 3.38 3.38 3.38h17.11c1.86 0 3.38-1.51 3.38-3.38V46c0-1.86-1.51-3.38-3.38-3.38H43.03z" fill="#ffffff" class="color000 svgShape"></path><path d="M64.02,58.68H39.15c-0.28,0-0.5-0.22-0.5-0.5s0.22-0.5,0.5-0.5h24.86c0.28,0,0.5,0.22,0.5,0.5
							S64.29,58.68,64.02,58.68z" fill="#ffffff" class="color000 svgShape"></path><g fill="#ffffff" class="color000 svgShape"><path d="M10.81,21.63c-0.12,0-0.24-0.04-0.33-0.13c-0.93-0.83-1.81-1.68-2.63-2.52c-1.25-1.28-1.25-3.22,0-4.5
					c3.64-3.73,13.32-12.42,24.61-12.42c11.32,0,20.98,8.69,24.61,12.42c0.17,0.17,0.33,0.37,0.45,0.59
					c0.14,0.24,0.06,0.54-0.18,0.68c-0.24,0.14-0.54,0.06-0.68-0.18c-0.08-0.14-0.19-0.27-0.3-0.39
					C52.8,11.53,43.39,3.06,32.45,3.06c-10.91,0-20.34,8.48-23.89,12.12c-0.87,0.9-0.87,2.2,0,3.1c0.8,0.83,1.67,1.66,2.59,2.48
					c0.21,0.18,0.22,0.5,0.04,0.71C11.09,21.57,10.95,21.63,10.81,21.63z" fill="#ffffff" class="color000 svgShape"></path><path d="M35.45,34.4c-11.31,0-20.98-8.69-24.61-12.43c-1.25-1.28-1.25-3.21,0-4.49c3.63-3.73,13.3-12.42,24.61-12.42
					s20.98,8.69,24.61,12.43c1.25,1.28,1.25,3.21,0,4.49C56.43,25.71,46.76,34.4,35.45,34.4z M35.45,6.06
					c-10.93,0-20.35,8.48-23.89,12.12c-0.88,0.9-0.88,2.2,0,3.09c3.54,3.65,12.97,12.12,23.89,12.12s20.35-8.48,23.89-12.12
					c0,0,0,0,0,0c0.88-0.9,0.88-2.2,0-3.09C55.8,14.54,46.38,6.06,35.45,6.06z" fill="#ffffff" class="color000 svgShape"></path><path d="M35.45,30.68c-6.04,0-10.95-4.91-10.95-10.95S29.42,8.78,35.45,8.78c6.04,0,10.95,4.91,10.95,10.95
				S41.49,30.68,35.45,30.68z M35.45,9.78c-5.49,0-9.95,4.46-9.95,9.95s4.46,9.95,9.95,9.95s9.95-4.46,9.95-9.95
				S40.94,9.78,35.45,9.78z" fill="#ffffff" class="color000 svgShape"></path><path d="M35.44,26.21c-0.25,0-0.49-0.01-0.74-0.04c-2.28-0.26-4.28-1.78-5.21-3.98c-0.27-0.63-0.44-1.29-0.49-1.95
				c-0.04-0.5,0.13-0.99,0.49-1.34c0.34-0.34,0.8-0.51,1.28-0.47c0.2,0.01,0.42,0.01,0.63-0.02c1.14-0.16,2.09-1.11,2.26-2.26
				c0.05-0.33,0.04-0.64-0.03-0.94c-0.1-0.46,0.02-0.94,0.31-1.31c0.3-0.39,0.75-0.62,1.22-0.64c0.22-0.01,0.43-0.01,0.65,0
				c3.37,0.18,6.06,2.96,6.14,6.33v0c0.04,1.87-0.73,3.67-2.11,4.93C38.63,25.62,37.06,26.21,35.44,26.21z M30.63,19.43
				c-0.22,0-0.37,0.11-0.44,0.18c-0.14,0.14-0.22,0.34-0.2,0.55c0.04,0.56,0.18,1.11,0.41,1.64c0.8,1.87,2.49,3.16,4.41,3.38
				c1.59,0.18,3.17-0.33,4.35-1.4c1.17-1.07,1.82-2.59,1.79-4.17c-0.06-2.81-2.39-5.21-5.19-5.36c-0.18-0.01-0.37-0.01-0.56,0
				c-0.18,0.01-0.36,0.1-0.48,0.26c-0.07,0.08-0.17,0.26-0.12,0.49c0.09,0.41,0.11,0.85,0.04,1.29c-0.22,1.58-1.53,2.89-3.11,3.11
				c-0.29,0.04-0.57,0.04-0.84,0.03C30.66,19.43,30.64,19.43,30.63,19.43z" fill="#ffffff" class="color000 svgShape"></path></g></svg></g></svg>