<svg id="SvgjsSvg1016" width="288" height="288" xmlns="http://www.w3.org/2000/svg" version="1.1" xmlns:xlink="http://www.w3.org/1999/xlink" xmlns:svgjs="http://svgjs.com/svgjs"><defs id="SvgjsDefs1017"></defs><g id="SvgjsG1018"><svg xmlns="http://www.w3.org/2000/svg" viewBox="0 0 32 32" width="288" height="288"><path style="line-height:normal;text-indent:0;text-align:start;text-decoration-line:none;text-decoration-style:solid;text-decoration-color:#000;text-transform:none;block-progression:tb;white-space:normal;isolation:auto;mix-blend-mode:normal;solid-color:#000;solid-opacity:1" d="M19.744 2.867v.002c-1.62 0-3.074.804-4.047 2.068-.228-.04-.454-.085-.687-.085-1.519 0-2.859.92-3.5 2.273-1.411.53-2.41 1.833-2.41 3.36 0 2.009 1.652 3.648 3.668 3.648h9.964c2.016 0 3.668-1.64 3.668-3.649 0-1.17-.613-2.229-1.552-2.912-.23-2.619-2.43-4.705-5.104-4.705zm0 1.356c2.055 0 3.763 1.661 3.807 3.699l.008.38.33.192a2.31 2.31 0 0 1 1.158 1.99 2.303 2.303 0 0 1-2.315 2.297h-9.964a2.303 2.303 0 0 1-2.315-2.297c0-1.032.699-1.944 1.701-2.216l.334-.094.121-.32a2.58 2.58 0 0 1 3.13-1.545l.493.144.272-.435a3.781 3.781 0 0 1 3.24-1.795zm-2.002 10.763a.5.5 0 0 0-.492.508v1.008h-12a.5.5 0 0 0-.5.5v1.5c-.01.676 1.01.676 1 0v-1h11.5v.992c-.01.676 1.01.676 1 0v-.992h10.5v1c-.01.676 1.01.676 1 0v-1.5a.5.5 0 0 0-.5-.5h-11v-1.008a.5.5 0 0 0-.508-.508zM.5 20a.5.5 0 0 0-.5.5v6.002a.5.5 0 0 0 .5.5h3.227a.5.5 0 0 0 0 .041v.959H3.01c-.676-.01-.676 1.01 0 1h3.98c.676.01.676-1.01 0-1h-.445v-.959c0-.014 0-.027-.002-.041H9.5a.5.5 0 0 0 .5-.5V20.5a.5.5 0 0 0-.5-.5h-9zm12.75 0a.5.5 0 0 0-.5.5v4.502h-.5a.5.5 0 0 0-.5.5v2a.5.5 0 0 0 .5.5h11a.5.5 0 0 0 .5-.5v-2a.5.5 0 0 0-.5-.5h-.5V20.5a.5.5 0 0 0-.5-.5h-9zm13.25.002a.5.5 0 0 0-.5.5v8a.5.5 0 0 0 .5.5h5a.5.5 0 0 0 .5-.5v-8a.5.5 0 0 0-.5-.5h-5zM1 21h8v5.002H1V21zm12.75 0h8v4.002h-8V21zm13.25.002h4v4.5h-4v-4.5zm-14.25 5h3.492a.5.5 0 0 0 .508.5h2a.5.5 0 0 0 .508-.5h3.492v1h-10v-1zm14.25.5h4v1.5h-4v-1.5zm2 .146a.5.5 0 1 0 0 1 .5.5 0 1 0 0-1zm-24.275.354h.82v.002a.5.5 0 0 0 0 .039v.959h-.818v-.959l-.002-.041z" color="#000" enable-background="accumulate" font-family="sans-serif" font-weight="400" overflow="visible" fill="#ffffff" class="color000 svgShape"></path></svg></g></svg>