<svg id="SvgjsSvg1045" width="288" height="288" xmlns="http://www.w3.org/2000/svg" version="1.1" xmlns:xlink="http://www.w3.org/1999/xlink" xmlns:svgjs="http://svgjs.com/svgjs"><defs id="SvgjsDefs1046"></defs><g id="SvgjsG1047"><svg xmlns="http://www.w3.org/2000/svg" viewBox="0 0 64 64" width="288" height="288"><circle cx="46" cy="44" r="1" fill="#ffffff" class="color231f20 svgShape"></circle><path fill="#ffffff" d="M36.63,26H2c-.553,0-1-.448-1-1s.447-1,1-1H36.63c.553,0,1,.448,1,1s-.447,1-1,1Z" class="color231f20 svgShape"></path><path fill="#ffffff" d="M25,49c-.553,0-1-.448-1-1V2c0-.552,.447-1,1-1s1,.448,1,1V48c0,.552-.447,1-1,1Z" class="color231f20 svgShape"></path><path fill="#ffffff" d="M44 14H6c-.553 0-1-.448-1-1s.447-1 1-1H44c.553 0 1 .448 1 1s-.447 1-1 1zM30 38H6c-.553 0-1-.448-1-1s.447-1 1-1H30c.553 0 1 .448 1 1s-.447 1-1 1zM46 59c-.149 0-.299-.033-.437-.1-.513-.249-12.563-6.183-12.563-13.9v-15c0-.431.275-.812.684-.949l12-4c.205-.068.428-.068.633 0l12 4c.408.136.684.518.684.949v15c0 7.717-12.051 13.651-12.563 13.9-.138.067-.287.1-.437.1zm-11-28.279v14.279c0 5.736 8.905 10.771 11 11.876 2.095-1.104 11-6.14 11-11.876v-14.279l-11-3.667-11 3.667z" class="color231f20 svgShape"></path><path fill="#ffffff" d="M50,49h-8c-1.103,0-2-.897-2-2v-6c0-1.103,.897-2,2-2h8c1.103,0,2,.897,2,2v6c0,1.103-.897,2-2,2Zm-8-8v6h8.001v-6h-8.001Z" class="color231f20 svgShape"></path><path fill="#ffffff" d="M50,41c-.553,0-1-.448-1-1v-4c0-1.654-1.346-3-3-3s-3,1.346-3,3v4c0,.552-.447,1-1,1s-1-.448-1-1v-4c0-2.757,2.243-5,5-5s5,2.243,5,5v4c0,.552-.447,1-1,1Z" class="color231f20 svgShape"></path><path fill="#ffffff" d="M25,49C11.767,49,1,38.233,1,25S11.767,1,25,1c12.334,0,22.594,9.242,23.865,21.497,.057,.549-.343,1.041-.892,1.098-.558,.061-1.041-.342-1.099-.892-1.165-11.232-10.569-19.703-21.875-19.703C12.869,3,3,12.869,3,25s9.869,22,22,22c1.627,0,3.234-.177,4.779-.527,.536-.123,1.074,.216,1.196,.754,.122,.539-.216,1.074-.755,1.196-1.688,.383-3.445,.577-5.221,.577Z" class="color231f20 svgShape"></path><path fill="#ffffff" d="M25,49c-7.29,0-13-10.542-13-24S17.71,1,25,1s12.968,10.488,13,23.877c0,.552-.445,1.001-.998,1.002h-.002c-.551,0-.999-.446-1-.998-.028-11.861-5.065-21.882-11-21.882S14,13.075,14,25s5.037,22,11,22c1.496,0,2.956-.618,4.339-1.835,.415-.365,1.046-.326,1.412,.09,.364,.415,.324,1.046-.09,1.411-1.734,1.527-3.692,2.334-5.661,2.334Z" class="color231f20 svgShape"></path><path fill="#ffffff" d="M46,63c-.145,0-.289-.031-.423-.094l-1.226-.571c-1.572-.732-15.352-7.436-15.352-17.29V27.125c0-.435,.281-.82,.695-.952l16-5.125c.197-.063,.412-.063,.609,0l16,5.125c.414,.132,.695,.518,.695,.952v17.921c0,9.854-13.781,16.558-15.353,17.29l-1.225,.571c-.134,.062-.278,.094-.423,.094ZM31,27.854v17.191c0,8.616,12.743,14.8,14.196,15.477h0l.803,.374,.803-.374c1.454-.677,14.197-6.861,14.197-15.477V27.854l-15-4.805-15,4.805Z" class="color231f20 svgShape"></path></svg></g></svg>