<svg id="SvgjsSvg1016" width="288" height="288" xmlns="http://www.w3.org/2000/svg" version="1.1" xmlns:xlink="http://www.w3.org/1999/xlink" xmlns:svgjs="http://svgjs.com/svgjs"><defs id="SvgjsDefs1017"></defs><g id="SvgjsG1018"><svg xmlns="http://www.w3.org/2000/svg" viewBox="0 0 32 32" width="288" height="288"><path style="line-height:normal;text-indent:0;text-align:start;text-decoration-line:none;text-decoration-style:solid;text-decoration-color:#000;text-transform:none;block-progression:tb;white-space:normal;isolation:auto;mix-blend-mode:normal;solid-color:#000;solid-opacity:1" d="m15.025 0-.709.707c.99.991 1.535 2.553 1.543 4.113.009 1.56-.517 3.088-1.53 4.04l.685.73c1.272-1.194 1.855-2.991 1.845-4.776C16.85 3.03 16.25 1.227 15.025 0zM4.23.008C3.006 1.235 2.406 3.036 2.396 4.82c-.01 1.785.573 3.582 1.846 4.776l.684-.729c-1.014-.951-1.538-2.48-1.53-4.04.009-1.56.552-3.123 1.542-4.114L4.23.008zm9.426 1.361-.707.707c.65.65 1.02 1.692 1.028 2.736.007 1.045-.346 2.06-1.006 2.68l.683.729c.92-.863 1.331-2.146 1.323-3.414-.01-1.269-.436-2.552-1.32-3.438zm-8.058.006c-.885.886-1.31 2.169-1.319 3.438-.008 1.268.401 2.553 1.32 3.416l.684-.731c-.66-.62-1.01-1.634-1.004-2.678.008-1.044.376-2.087 1.026-2.738l-.707-.707zm4.062 1.09c-.749 0-1.465.675-1.465 1.654v8.725c0 .87-.484 1.897-.484 3.08v2.512H6.236c-.818 0-1.423.735-1.423 1.554v.387c-1.1.046-1.932 1.04-1.932 2.193v4.33c0 1.153.833 2.145 1.932 2.192v.388c0 .82.605 1.555 1.423 1.555h.512v.383a.5.5 0 0 0 .5.582h.961a.5.5 0 0 0 .5-.582v-.383h12.533v.363a.5.5 0 0 0 .496.602h.955a.5.5 0 0 0 .506-.482h.006v-.483h2.44c.818 0 1.423-.735 1.423-1.555v-.388c1.1-.047 1.932-1.04 1.932-2.192v-4.33c0-1.152-.833-2.147-1.932-2.193v-.387c0-.82-.605-1.554-1.423-1.554H11.609v-2.512c0-1.183-.481-2.21-.482-3.08V4.119c0-.979-.718-1.654-1.467-1.654zm2.627.27-.707.706c.309.31.501.836.504 1.368.003.531-.181 1.038-.492 1.33l.685.728c.57-.534.811-1.308.807-2.064-.004-.756-.252-1.524-.797-2.069zm-5.32.005c-.545.545-.793 1.313-.797 2.069-.004.755.239 1.53.809 2.064l.683-.728c-.311-.292-.495-.8-.492-1.33.003-.532.195-1.059.504-1.368l-.707-.707zm2.693.723v.002c.218 0 .467.094.467.654v8.725c0 1.183.482 2.208.482 3.078v2.512H8.711v-2.512c0-.87.484-1.897.484-3.08V4.117c0-.56.248-.654.465-.654zM6.236 19.436h19.409c.205 0 .423.205.423.554v.38H5.812v-.38c0-.349.219-.554.424-.554zm-1.345 1.933h22.1c.533 0 1.009.497 1.009 1.201v4.33c0 .704-.476 1.202-1.01 1.202H4.89c-.533 0-1.01-.498-1.01-1.202v-4.33c0-.704.477-1.2 1.01-1.2zm3.32 1.416c-1.07 0-1.95.879-1.95 1.95 0 1.07.88 1.95 1.95 1.95 1.07 0 1.95-.88 1.95-1.95 0-1.071-.88-1.95-1.95-1.95zm0 1c.53 0 .95.419.95.95 0 .53-.42.95-.95.95s-.95-.42-.95-.95c0-.531.42-.95.95-.95zm4.78.451a.5.5 0 0 0 .048 1H14a.5.5 0 1 0 0-1h-.96a.5.5 0 0 0-.05 0zm2.902 0a.5.5 0 0 0 .048 1h.961a.5.5 0 1 0 0-1h-.96a.5.5 0 0 0-.05 0zm2.898 0a.5.5 0 0 0 .049 1h.96a.5.5 0 1 0 0-1h-.96a.5.5 0 0 0-.049 0zm2.898 0a.5.5 0 0 0 .05 1h.96a.5.5 0 1 0 0-1h-.96a.5.5 0 0 0-.05 0zM5.812 29.102h20.256v.378c0 .35-.218.555-.423.555H6.236c-.205 0-.423-.206-.423-.555v-.378z" color="#000" enable-background="accumulate" font-family="sans-serif" font-weight="400" overflow="visible" fill="#ffffff" class="color000 svgShape"></path></svg></g></svg>